<svg width="1500" height="1500" viewBox="0 0 396.9 396.9" xml:space="preserve" xmlns="http://www.w3.org/2000/svg"><path fill="#fff" fill-rule="evenodd" d="M0 0h397v397H0z"/><path fill="#ff930f" fill-rule="evenodd" d="M198.45 198.45H396.9V396.9H198.45Z" style="stroke-width:.999751"/><path d="M793 540c6-5 10-12 10-21l-2-11c-2-3-5-4-4-10l1-2c0-5-13-10-32-10s-31 5-31 10v2c2 6-1 7-3 10l-3 11c0 9 5 16 11 21a43 43 0 0 0 52 0z" fill="#fee46e" fill-rule="evenodd" stroke="#ac8800" stroke-linecap="round" stroke-linejoin="round" stroke-width="1.4" transform="matrix(.85427 0 0 .86014 -357 -179)"/><path d="M274 245c8-6 35-7 48 0l1 2h-49zm-2 6 3 2-3 10-3-3c1-3 5-5 3-9z" fill="#fea"/><g stroke="#004c00" stroke-linecap="round" stroke-linejoin="round" stroke-width="1.2"><path d="M615 129c2 1 5-3 6-5 2-2 7-2 9-1 5 1 10 6 18 17l6 11h5l-7-13c-4-7-11-17-20-20-3-1-9-1-12 1l-5 4c-1 2-2 5 0 6z" fill="#008f4c" fill-rule="evenodd" transform="matrix(.64278 .31825 -.30766 .6649 -95 -56)"/><path d="m611 132 2-2 2-1 2-3m0-3s0 0 0 0c-1 0-1 0 0 0v-1 1zm-4 7-3 2" fill="none" transform="matrix(.64278 .31825 -.30766 .6649 -95 -56)"/></g><path d="M795 497c0-4-13-9-29-9s-28 5-28 9 13 8 28 8 29-4 29-8z" fill="#fee46e" stroke="#ac8800" stroke-linecap="round" stroke-linejoin="round" transform="matrix(.85427 0 0 .86014 -357 -179)"/><path d="M319 250c-4-2-11-4-21-4s-18 2-21 4c9-2 12-3 21-3s11 1 21 3z" fill="#cdac00"/><g stroke="#004c00" stroke-linecap="round" stroke-linejoin="round" stroke-width="1.2"><path d="M615 129c2 1 5-3 6-5 2-2 7-2 9-1 5 1 10 6 18 17l6 11h5l-7-13c-4-7-11-17-20-20-3-1-9-1-12 1l-5 4c-1 2-2 5 0 6z" fill="#008f4c" fill-rule="evenodd" transform="matrix(-.64278 .31825 .30766 .6649 690 -56)"/><path d="m611 132 2-2 2-1 2-3m0-3s0 0 0 0c-1 0-1 0 0 0v-1 1zm-4 7-3 2" fill="none" transform="matrix(-.64278 .31825 .30766 .6649 690 -56)"/></g><path d="m273 267 6 2-1 10-6-2zm8-16c10-5 29-2 35-1l-1 3c-11 1-22 2-34 1z" fill="#fea"/><path d="m759 521 1-16h12l2 16h-15zm15 15v-15l12-2c-1-5-3-11-2-16l7-2c-1 4 3 8 5 15-3 1-6 3-10 3 1 4 2 9 1 15l10-4c1-7 0-11-1-14 2-1 4-2 6-6v0c1 3 3 9 0 16l-5 4-1 8-11 7 2-11c-4 1-6 2-13 2l-1 12-7 1-6-1-1-12-14-2 3 11-11-7-2-8-5-4c-2-7 0-13 1-16v0c2 4 4 5 6 6l-2 14 10 4 2-15c-4 0-7-2-10-3 2-7 6-11 5-15l7 2c1 5-1 11-2 16 5 2 8 2 12 2v15h15z" fill="#bd0000" fill-rule="evenodd" stroke="#ac8800" stroke-linecap="round" stroke-linejoin="round" transform="matrix(.85427 0 0 .86014 -357 -179)"/><path d="M740 488c0 7-11 7-11 0 0-6 3-6 4 0 0 4 3 4 3 0 0-16 13-28 30-28 18 0 31 12 31 28 0 4 3 4 3 0 0-6 3-6 3 0 0 7-10 7-10 0 0-14-12-24-27-24-14 0-27 10-26 24z" fill="#008f4c" fill-rule="evenodd" stroke="#004c00" stroke-linecap="round" stroke-linejoin="round" stroke-width="1.2" transform="matrix(.85427 0 0 .86014 -357 -179)"/><path d="M274 240c0 6-7 7-7 1 0-4 1-3 1 0s5 4 5 0c-1-12 10-23 24-23 15 0 26 10 26 24 0 3 4 3 4 0 0-4 1-6 1 0 0 3-6 4-6-1 0-13-12-22-24-22s-25 9-24 21z" fill="#00ad6a" fill-rule="evenodd"/><path d="M797 495v8c2-1 3-3 3-5v-9l-1-2-2 2v6z" fill="#fee46e" stroke="#ac8800" stroke-linecap="round" stroke-linejoin="round" transform="matrix(.85427 0 0 .86014 -357 -179)"/><path d="m739 537 5 4-9 8-1-2z" fill="#fee46e" stroke="#ac8800" stroke-linecap="round" stroke-linejoin="round" stroke-width="1.4" transform="matrix(.85427 0 0 .86014 -357 -179)"/><g stroke="#004c00" stroke-linecap="round" stroke-linejoin="round"><path d="M312 1504c2 1 4-3 6-3l8 1c2 0 15 1 4 21l4 1c13-22-4-26-7-26-4 0-6-2-11-1-2 0-2 1-3 2-1 2-2 4-1 5z" fill="#008f4c" fill-rule="evenodd" transform="matrix(.85427 0 0 .86014 -7 -1058)"/><path d="m308 1508 2-3 2-1 3-2m0-3v1-1s0 0 0 0 0 0 0 0zm-5 6-3 1" fill="none" transform="matrix(.85427 0 0 .86014 -7 -1058)"/></g><path d="M736 495v4c1 2 1 4-1 4l-2-5v-9l1-2 2 2v6z" fill="#fee46e" stroke="#ac8800" stroke-linecap="round" stroke-linejoin="round" transform="matrix(.85427 0 0 .86014 -357 -179)"/><path d="M271 247v3l-1 2-1-3v-6l1-2 1 2v4z" fill="#fea"/><g stroke="#004c00" stroke-linecap="round" stroke-linejoin="round" stroke-width="1.2"><path d="M612 129c3 1 5-3 7-4l10-8c2-1 6-4 11 0l5-2c-5-5-13-6-18-3l-11 8-4 4v5z" fill="#008f4c" fill-rule="evenodd" transform="matrix(.59218 .41006 -.39641 .61256 -53 -81)"/><path d="m610 135 2-3 1-3 2-3m0-2-1 1v-1l1-1v1zm-3 8-2 1" fill="none" transform="matrix(.59218 .41006 -.39641 .61256 -53 -81)"/></g><path d="M285 244c10-2 15-1 29 1v2c-4-1-17-4-29 0z" fill="#fea"/><g fill="#008f4c" stroke="#004c00" stroke-linecap="round" stroke-linejoin="round" stroke-width="1.2"><path d="M608 131c2 1 4-4 6-4 7-2 12 3 11 9 0 6-1 8 1 13l4-7v-6c2-10-8-17-19-14l-3 3c-1 2-2 5 0 6z" fill-rule="evenodd" transform="matrix(-.42725 .58997 .57034 .44195 474 -179)"/><path d="m604 135 2-2 2-2 2-4m0-2v1l-1-1h1s0 0 0 0zm-4 8-3 1" transform="matrix(-.42725 .58997 .57034 .44195 474 -179)"/></g><g fill="#008f4c" stroke="#004c00" stroke-linecap="round" stroke-linejoin="round" stroke-width="1.2"><path d="M608 131c2 1 4-4 6-4 4-2 6 4 9 9l3-5c-3-4-6-14-15-9l-3 3c0 1-2 5 0 6z" fill-rule="evenodd" transform="matrix(-.45918 .56372 .54496 .47498 499 -161)"/><path d="m604 135 2-2 2-2 2-4m0-2v1l-1-1h1s0 0 0 0zm-4 8-3 1" transform="matrix(-.45918 .56372 .54496 .47498 499 -161)"/></g><g stroke="#004c00" stroke-linecap="round" stroke-linejoin="round" stroke-width="1.2"><path d="M616 130c2 1 6-3 7-5 5-7 6-18 13-14h7c-3-4-5-5-9-5-10 1-10 11-15 14l-3 5v5z" fill="#008f4c" fill-rule="evenodd" transform="matrix(.66906 .2478 -.25697 .68996 -120 18)"/><path d="m614 134 1-2 1-2 3-3m0-2h-1v-1h1v1zm-4 7-2 1" fill="none" transform="matrix(.66906 .2478 -.25697 .68996 -120 18)"/></g><path d="m285 256 6 1-1 11-7-1c2-4 2-7 2-11zm26 0-7 1 1 11 8-1c-3-4-2-7-2-11z" fill="#fea"/><path d="m317 255-3 1 1 9 5-1z" fill="#ce0f25"/><path d="m323 252-4 1 4 10 3-2c-2-3-6-6-3-9z" fill="#fea"/><path d="M295 258h6l1 10h-9zm-17-3 3 1-1 10-5-2z" fill="#ce0f25"/><path d="M795 506c-8 3-17 6-29 6s-21-3-28-6a61 61 0 0 0 57 0z" fill="#cdac00" stroke="#cdac00" stroke-linecap="round" stroke-linejoin="round" transform="matrix(.85427 0 0 .86014 -357 -179)"/><path d="m793 537-4 4 9 8 1-2z" fill="#fee46e" stroke="#ac8800" stroke-linecap="round" stroke-linejoin="round" stroke-width="1.4" transform="matrix(.85427 0 0 .86014 -357 -179)"/><g stroke="#004c00" stroke-linecap="round" stroke-linejoin="round"><path d="M312 1504c2 1 4-3 6-3l8 1c2 0 15 1 4 21l4 1c13-22-4-26-7-26-4 0-6-2-11-1-2 0-2 1-3 2-1 2-2 4-1 5z" fill="#008f4c" fill-rule="evenodd" transform="matrix(-.85427 0 0 .86014 602 -1058)"/><path d="m308 1508 2-3 2-1 3-2m0-3v1-1s0 0 0 0 0 0 0 0zm-5 6-3 1" fill="none" transform="matrix(-.85427 0 0 .86014 602 -1058)"/></g><path d="M325 247v5l1-3v-7l-1-1v6z" fill="#fea"/><g stroke="#004c00" stroke-linecap="round" stroke-linejoin="round" stroke-width="1.2"><path d="M612 129c3 1 5-3 7-4l10-8c2-1 6-4 11 0l5-2c-5-5-13-6-18-3l-11 8-4 4v5z" fill="#008f4c" fill-rule="evenodd" transform="matrix(-.59218 .41006 .39641 .61256 648 -81)"/><path d="m610 135 2-3 1-3 2-3m0-2-1 1v-1l1-1v1zm-3 8-2 1" fill="none" transform="matrix(-.59218 .41006 .39641 .61256 648 -81)"/></g><g stroke="#004c00" stroke-linecap="round" stroke-linejoin="round" stroke-width="1.2"><path d="M608 131c2 1 4-4 6-4 7-2 12 3 11 9 0 6-1 8 1 13l4-7v-6c2-10-8-17-19-14l-3 3c-1 2-2 5 0 6z" fill="#008f4c" fill-rule="evenodd" transform="matrix(.42725 .58997 -.57034 .44195 121 -179)"/><path d="m604 135 2-2 2-2 2-4m0-2v1l-1-1h1s0 0 0 0zm-4 8-3 1" fill="none" transform="matrix(.42725 .58997 -.57034 .44195 121 -179)"/></g><g stroke="#004c00" stroke-linecap="round" stroke-linejoin="round" stroke-width="1.2"><path d="M608 131c2 1 4-4 6-4 4-2 6 4 9 9l3-5c-3-4-6-14-15-9l-3 3c0 1-2 5 0 6z" fill="#008f4c" fill-rule="evenodd" transform="matrix(.45918 .56372 -.54496 .47498 97 -161)"/><path d="m604 135 2-2 2-2 2-4m0-2v1l-1-1h1s0 0 0 0zm-4 8-3 1" fill="none" transform="matrix(.45918 .56372 -.54496 .47498 97 -161)"/></g><g stroke="#004c00" stroke-linecap="round" stroke-linejoin="round" stroke-width="1.2"><path d="M616 130c2 1 6-3 7-5 5-7 6-18 13-14h7c-3-4-5-5-9-5-10 1-10 11-15 14l-3 5v5z" fill="#008f4c" fill-rule="evenodd" transform="matrix(-.66906 .2478 .25697 .68996 716 18)"/><path d="m614 134 1-2 1-2 3-3m0-2h-1v-1h1v1zm-4 7-2 1" fill="none" transform="matrix(-.66906 .2478 .25697 .68996 716 18)"/></g><path fill="#fea" d="M293 272h9v10h-9zm12 12 9-2-2 7-7 3zm17-17-6 2c1 4 2 7 1 10l6-2zm-32 17-9-1 2 6 7 3zm29 3 1-1 4 5v1zm-43 0-1-1-4 6z"/><path d="m268 264 2 2-1 9-1-2zm37 7 9-1v9l-8 2zm-15 0-8-1-1 9 9 2zm3 14h9v7h-9zm34-21-2 1 1 9 2-1z" fill="#ce0f25"/><path d="M793 540c6-5 10-12 10-21l-2-11c-2-3-5-4-4-10l1-2c0-5-13-10-32-10s-31 5-31 10v2c2 6-1 7-3 10l-3 11c0 9 5 16 11 21a43 43 0 0 0 52 0z" fill="#fee46e" fill-rule="evenodd" stroke="#ac8800" stroke-linecap="round" stroke-linejoin="round" stroke-width="1.4" transform="matrix(.85427 0 0 .86014 -357 -94)"/><path d="M274 330c8-6 35-7 48 0l1 2h-49zm-2 6 3 2-3 10-3-3c1-3 5-5 3-9z" fill="#fea"/><g stroke="#004c00" stroke-linecap="round" stroke-linejoin="round" stroke-width="1.2"><path d="M615 129c2 1 5-3 6-5 2-2 7-2 9-1 5 1 10 6 18 17l6 11h5l-7-13c-4-7-11-17-20-20-3-1-9-1-12 1l-5 4c-1 2-2 5 0 6z" fill="#008f4c" fill-rule="evenodd" transform="matrix(.64278 .31825 -.30766 .6649 -95 29)"/><path d="m611 132 2-2 2-1 2-3m0-3s0 0 0 0c-1 0-1 0 0 0v-1 1zm-4 7-3 2" fill="none" transform="matrix(.64278 .31825 -.30766 .6649 -95 29)"/></g><path d="M795 497c0-4-13-9-29-9s-28 5-28 9 13 8 28 8 29-4 29-8z" fill="#fee46e" stroke="#ac8800" stroke-linecap="round" stroke-linejoin="round" transform="matrix(.85427 0 0 .86014 -357 -94)"/><path d="M319 335c-4-2-11-4-21-4s-18 2-21 4c9-2 12-3 21-3s11 1 21 3z" fill="#cdac00"/><g stroke="#004c00" stroke-linecap="round" stroke-linejoin="round" stroke-width="1.2"><path d="M615 129c2 1 5-3 6-5 2-2 7-2 9-1 5 1 10 6 18 17l6 11h5l-7-13c-4-7-11-17-20-20-3-1-9-1-12 1l-5 4c-1 2-2 5 0 6z" fill="#008f4c" fill-rule="evenodd" transform="matrix(-.64278 .31825 .30766 .6649 690 29)"/><path d="m611 132 2-2 2-1 2-3m0-3s0 0 0 0c-1 0-1 0 0 0v-1 1zm-4 7-3 2" fill="none" transform="matrix(-.64278 .31825 .30766 .6649 690 29)"/></g><path d="m273 352 6 2-1 9-6-2zm8-16c10-5 29-2 35-1l-1 3c-11 1-22 2-34 1z" fill="#fea"/><path d="m759 521 1-16h12l2 16h-15zm15 15v-15l12-2c-1-5-3-11-2-16l7-2c-1 4 3 8 5 15-3 1-6 3-10 3 1 4 2 9 1 15l10-4c1-7 0-11-1-14 2-1 4-2 6-6v0c1 3 3 9 0 16l-5 4-1 8-11 7 2-11c-4 1-6 2-13 2l-1 12-7 1-6-1-1-12-14-2 3 11-11-7-2-8-5-4c-2-7 0-13 1-16v0c2 4 4 5 6 6l-2 14 10 4 2-15c-4 0-7-2-10-3 2-7 6-11 5-15l7 2c1 5-1 11-2 16 5 2 8 2 12 2v15h15z" fill="#bd0000" fill-rule="evenodd" stroke="#ac8800" stroke-linecap="round" stroke-linejoin="round" transform="matrix(.85427 0 0 .86014 -357 -94)"/><path d="M740 488c0 7-11 7-11 0 0-6 3-6 4 0 0 4 3 4 3 0 0-16 13-28 30-28 18 0 31 12 31 28 0 4 3 4 3 0 0-6 3-6 3 0 0 7-10 7-10 0 0-14-12-24-27-24-14 0-27 10-26 24z" fill="#008f4c" fill-rule="evenodd" stroke="#004c00" stroke-linecap="round" stroke-linejoin="round" stroke-width="1.2" transform="matrix(.85427 0 0 .86014 -357 -94)"/><path d="M274 325c0 6-7 6-7 1 0-4 1-3 1 0s5 3 5 0c-1-13 10-23 24-23 15 0 26 10 26 23 0 4 4 4 4 1 0-4 1-6 1 0 0 3-6 4-6-1 0-13-12-22-24-22s-25 8-24 21z" fill="#00ad6a" fill-rule="evenodd"/><path d="M797 495v8c2-1 3-3 3-5v-9l-1-2-2 2v6z" fill="#fee46e" stroke="#ac8800" stroke-linecap="round" stroke-linejoin="round" transform="matrix(.85427 0 0 .86014 -357 -94)"/><path d="m739 537 5 4-9 8-1-2z" fill="#fee46e" stroke="#ac8800" stroke-linecap="round" stroke-linejoin="round" stroke-width="1.4" transform="matrix(.85427 0 0 .86014 -357 -94)"/><g stroke="#004c00" stroke-linecap="round" stroke-linejoin="round"><path d="M312 1504c2 1 4-3 6-3l8 1c2 0 15 1 4 21l4 1c13-22-4-26-7-26-4 0-6-2-11-1-2 0-2 1-3 2-1 2-2 4-1 5z" fill="#008f4c" fill-rule="evenodd" transform="matrix(.85427 0 0 .86014 -7 -974)"/><path d="m308 1508 2-3 2-1 3-2m0-3v1-1s0 0 0 0 0 0 0 0zm-5 6-3 1" fill="none" transform="matrix(.85427 0 0 .86014 -7 -974)"/></g><path d="M736 495v4c1 2 1 4-1 4l-2-5v-9l1-2 2 2v6z" fill="#fee46e" stroke="#ac8800" stroke-linecap="round" stroke-linejoin="round" transform="matrix(.85427 0 0 .86014 -357 -94)"/><path d="M271 332v3l-1 2-1-3v-6l1-2 1 2v4z" fill="#fea"/><g stroke="#004c00" stroke-linecap="round" stroke-linejoin="round" stroke-width="1.2"><path d="M612 129c3 1 5-3 7-4l10-8c2-1 6-4 11 0l5-2c-5-5-13-6-18-3l-11 8-4 4v5z" fill="#008f4c" fill-rule="evenodd" transform="matrix(.59218 .41006 -.39641 .61256 -53 4)"/><path d="m610 135 2-3 1-3 2-3m0-2-1 1v-1l1-1v1zm-3 8-2 1" fill="none" transform="matrix(.59218 .41006 -.39641 .61256 -53 4)"/></g><path d="M285 329c10-2 15-1 29 0v3c-4-2-17-4-29 0z" fill="#fea"/><g fill="#008f4c" stroke="#004c00" stroke-linecap="round" stroke-linejoin="round" stroke-width="1.2"><path d="M608 131c2 1 4-4 6-4 7-2 12 3 11 9 0 6-1 8 1 13l4-7v-6c2-10-8-17-19-14l-3 3c-1 2-2 5 0 6z" fill-rule="evenodd" transform="matrix(-.42725 .58997 .57034 .44195 474 -94)"/><path d="m604 135 2-2 2-2 2-4m0-2v1l-1-1h1s0 0 0 0zm-4 8-3 1" transform="matrix(-.42725 .58997 .57034 .44195 474 -94)"/></g><g fill="#008f4c" stroke="#004c00" stroke-linecap="round" stroke-linejoin="round" stroke-width="1.2"><path d="M608 131c2 1 4-4 6-4 4-2 6 4 9 9l3-5c-3-4-6-14-15-9l-3 3c0 1-2 5 0 6z" fill-rule="evenodd" transform="matrix(-.45918 .56372 .54496 .47498 499 -76)"/><path d="m604 135 2-2 2-2 2-4m0-2v1l-1-1h1s0 0 0 0zm-4 8-3 1" transform="matrix(-.45918 .56372 .54496 .47498 499 -76)"/></g><g stroke="#004c00" stroke-linecap="round" stroke-linejoin="round" stroke-width="1.2"><path d="M616 130c2 1 6-3 7-5 5-7 6-18 13-14h7c-3-4-5-5-9-5-10 1-10 11-15 14l-3 5v5z" fill="#008f4c" fill-rule="evenodd" transform="matrix(.66906 .2478 -.25697 .68996 -120 103)"/><path d="m614 134 1-2 1-2 3-3m0-2h-1v-1h1v1zm-4 7-2 1" fill="none" transform="matrix(.66906 .2478 -.25697 .68996 -120 103)"/></g><path d="m285 341 6 1-1 11-7-1c2-4 2-7 2-11zm26 0-7 1 1 11 8-1c-3-4-2-7-2-11z" fill="#fea"/><path d="m317 340-3 1 1 9 5-2z" fill="#ce0f25"/><path d="m323 336-4 2 4 10 3-3c-2-3-6-5-3-9z" fill="#fea"/><path d="M295 343h6l1 10h-9zm-17-3 3 1-1 9-5-1z" fill="#ce0f25"/><path d="M795 506c-8 3-17 6-29 6s-21-3-28-6a61 61 0 0 0 57 0z" fill="#cdac00" stroke="#cdac00" stroke-linecap="round" stroke-linejoin="round" transform="matrix(.85427 0 0 .86014 -357 -94)"/><path d="m793 537-4 4 9 8 1-2z" fill="#fee46e" stroke="#ac8800" stroke-linecap="round" stroke-linejoin="round" stroke-width="1.4" transform="matrix(.85427 0 0 .86014 -357 -94)"/><g stroke="#004c00" stroke-linecap="round" stroke-linejoin="round"><path d="M312 1504c2 1 4-3 6-3l8 1c2 0 15 1 4 21l4 1c13-22-4-26-7-26-4 0-6-2-11-1-2 0-2 1-3 2-1 2-2 4-1 5z" fill="#008f4c" fill-rule="evenodd" transform="matrix(-.85427 0 0 .86014 602 -974)"/><path d="m308 1508 2-3 2-1 3-2m0-3v1-1s0 0 0 0 0 0 0 0zm-5 6-3 1" fill="none" transform="matrix(-.85427 0 0 .86014 602 -974)"/></g><path d="M325 332v5l1-3v-7l-1-1v6z" fill="#fea"/><g stroke="#004c00" stroke-linecap="round" stroke-linejoin="round" stroke-width="1.2"><path d="M612 129c3 1 5-3 7-4l10-8c2-1 6-4 11 0l5-2c-5-5-13-6-18-3l-11 8-4 4v5z" fill="#008f4c" fill-rule="evenodd" transform="matrix(-.59218 .41006 .39641 .61256 648 4)"/><path d="m610 135 2-3 1-3 2-3m0-2-1 1v-1l1-1v1zm-3 8-2 1" fill="none" transform="matrix(-.59218 .41006 .39641 .61256 648 4)"/></g><g stroke="#004c00" stroke-linecap="round" stroke-linejoin="round" stroke-width="1.2"><path d="M608 131c2 1 4-4 6-4 7-2 12 3 11 9 0 6-1 8 1 13l4-7v-6c2-10-8-17-19-14l-3 3c-1 2-2 5 0 6z" fill="#008f4c" fill-rule="evenodd" transform="matrix(.42725 .58997 -.57034 .44195 121 -94)"/><path d="m604 135 2-2 2-2 2-4m0-2v1l-1-1h1s0 0 0 0zm-4 8-3 1" fill="none" transform="matrix(.42725 .58997 -.57034 .44195 121 -94)"/></g><g stroke="#004c00" stroke-linecap="round" stroke-linejoin="round" stroke-width="1.2"><path d="M608 131c2 1 4-4 6-4 4-2 6 4 9 9l3-5c-3-4-6-14-15-9l-3 3c0 1-2 5 0 6z" fill="#008f4c" fill-rule="evenodd" transform="matrix(.45918 .56372 -.54496 .47498 97 -76)"/><path d="m604 135 2-2 2-2 2-4m0-2v1l-1-1h1s0 0 0 0zm-4 8-3 1" fill="none" transform="matrix(.45918 .56372 -.54496 .47498 97 -76)"/></g><g stroke="#004c00" stroke-linecap="round" stroke-linejoin="round" stroke-width="1.2"><path d="M616 130c2 1 6-3 7-5 5-7 6-18 13-14h7c-3-4-5-5-9-5-10 1-10 11-15 14l-3 5v5z" fill="#008f4c" fill-rule="evenodd" transform="matrix(-.66906 .2478 .25697 .68996 716 103)"/><path d="m614 134 1-2 1-2 3-3m0-2h-1v-1h1v1zm-4 7-2 1" fill="none" transform="matrix(-.66906 .2478 .25697 .68996 716 103)"/></g><path fill="#fea" d="M293 356h9v11h-9zm12 13 9-2-2 7-7 2zm17-17-6 2c1 3 2 7 1 10l6-2zm-32 17-9-2 2 7 7 3zm29 3 1-2 4 6v1zm-43 0-1-1-4 6z"/><path d="m268 349 2 2-1 8-1-1zm37 7 9-1v9l-8 2zm-15 0-8-1-1 9 9 2zm3 13h9v7h-9zm34-20-2 1 1 9 2-1z" fill="#ce0f25"/><g stroke-width="0"><path fill="#fff" fill-rule="evenodd" d="M0 198.44999982h198.44999982v198.44999982H0Z"/><g transform="scale(.2265) rotate(-45 1362.25052892 514.44944393)" fill="#1353b4" stroke-miterlimit="10"><circle cx="33.200001" cy="315" r="108.5"/><circle cx="213.89999" cy="134.3" r="108.5"/><circle cx="70.699997" cy="714" r="108.5"/><circle cx="-147.60001" cy="495.70001" r="108.5"/><circle cx="251.39999" cy="533.29999" r="108.5"/><circle cx="432.10001" cy="352.60001" r="108.5"/></g></g><path fill="#ce0f25" fill-rule="evenodd" style="fill:#e11126;fill-opacity:1;stroke-width:.883966" d="M198.45 0H396.9v198.45H198.45Z"/><g stroke-miterlimit="10" stroke-width="3"><path transform="matrix(.23416 0 0 .1986 225 25)" d="M662 348s-19-33-55-33l-8 2s22-16 22-44c0-34-29-57-59-57-26 0-39 14-39 17 14-2 34 8 34 31 0 24-22 36-55 36l-145-1V121c0-33 12-56 36-56 23 0 33 21 31 35 3 0 17-14 17-40 0-29-23-59-57-59-28 0-44 23-44 23l2-9c0-35-33-55-33-55s-32 20-32 55l1 9S263 1 234 1c-34 0-57 30-57 59 0 26 14 40 17 40-1-14 8-35 31-35 24 0 36 23 36 56v178l-141 1c-33 0-55-13-55-36s20-33 34-31c0-4-13-17-40-17-29 0-59 23-59 56 0 29 23 45 23 45l-8-2c-36 0-55 33-55 33s19 32 55 32l8-2S0 394 0 423c0 34 30 57 59 57 27 0 40-14 40-17-14 1-34-8-34-31 0-24 22-37 55-37h141v233c0 34-12 56-36 56-23 0-32-20-31-34-3 0-17 13-17 39 0 30 23 59 57 59 29 0 44-22 44-22l-1 8c0 36 32 55 32 55s32-19 32-55l-1-8s15 22 44 22c34 0 57-29 57-59 0-26-14-39-17-39 2 14-8 34-31 34-24 0-36-22-36-56V395h144c34 0 56 13 56 37 0 22-21 32-35 31 0 3 14 17 40 17 29 0 59-23 59-57 0-29-22-45-22-45l8 2c36 0 55-32 55-32z" fill="#f6f6f6" style="stroke:none"/><path transform="matrix(.23416 0 0 .1986 225 25)" fill="#ce0f25" style="stroke:none;fill:#e11126;fill-opacity:1" d="M290 329H84v38h206v281h38V367h206v-38H328V88h-38z"/></g><g stroke-width="0"><path fill="#fea" fill-rule="evenodd" d="M0 0h198.4499946v198.44999982H0Z"/><path d="m133.3022691 49.861809-8.0181816 21.93919596 20.045454-14.9585427 19.0431813 14.9585427-8.0181816-21.93919596 18.0409086-11.96683416h-22.0499994l-7.0159089-20.94195978-8.0181816 20.94195978h-21.0477267ZM34.0772718 71.80100496l20.045454-14.9585427 19.0431813 14.9585427L65.1477255 49.861809l18.0409086-11.96683416H61.1386347l-7.0159089-20.94195978-8.0181816 20.94195978H24.0545448L42.0954534 49.861809zm87.1977249 87.75678384-8.0181816 21.93919596 19.0431813-14.9585427 20.045454 14.9585427-8.0181816-21.93919596 17.0386359-12.96407034H140.318178l-8.0181816-20.94195978-7.0159089 20.94195978h-22.0499994zm-75.1704525 21.93919596 20.045454-14.9585427 20.045454 14.9585427-9.0204543-21.93919596 18.0409086-12.96407034H73.1659071l-7.0159089-20.94195978-7.0159089 20.94195978H37.0840899l18.0409086 12.96407034zm53.1204531-74.7927135 20.045454 14.9585427L110.249997 99.723618l18.0409086-11.96683416h-22.0499994l-7.0159089-20.94195978-7.0159089 20.94195978H70.159089L88.1999976 99.723618l-8.0181816 21.93919596z" fill="#e9001a" stroke-miterlimit="10"/></g></svg>